# xmcd
#
# Track frame offsets:
#	150
#	13561
#	33021
#	42819
#	57292
#	74985
#	91582
#	102047
#	114416
#	125190
#	136228
#	151286
#	161660
#	174872
#	188934
#	199046
#	210579
#	221742
#
# Disc length: 3106
#
# Revision: 2
# Processed by: cddbd v1.5.1PL0 Copyright (c) Steve Scherf et al.
# Submitted via: audiograbber 1.83.01
# Normalized: r1:DSETVAR1
#
DISCID=f50c2012
DTITLE=Various Artist - I Love Beach Music Disc 2
DYEAR=2003
DGENRE=Oldies
TTITLE0=The Fantastic Shakers - Mytle Beach Days
TTITLE1=Jim Quick And The Coastline Band - New Old Songs
TTITLE2=Bill Deal And The Rhondels - Ive Been Hurt
TTITLE3=Bill Pinkney And The Original Drifters - Gonna Move Across The River
TTITLE4=The Clovers - Drive It Home
TTITLE5=The Part Time Party Band - Party Time Man
TTITLE6=The Swinging Medallions - Double Shot (Of My Babys Love)
TTITLE7=The Platters - Washed Ashore
TTITLE8=The Showmen - It Will Stand
TTITLE9=Benny Spellman - Lipstick Traces
TTITLE10=Chuck Jackson - Any Day Now
TTITLE11=Maurice Williams And The Zodiacs - May I
TTITLE12=Billy Scott And The Georgia Prophets - I Got The Fever
TTITLE13=Gary Bass And The Ebs All Star Blues Band - Soothe Me
TTITLE14=Betty Everett - Shoop Shoop (Its In His Kiss)
TTITLE15=Mel And Tim - Backfield In Motion
TTITLE16=Wilbert Harrison - Kansas City
TTITLE17=Little Anthony And The Imperials - Going Out Of My Head
EXTD=
EXTT0=
EXTT1=
EXTT2=
EXTT3=
EXTT4=
EXTT5=
EXTT6=
EXTT7=
EXTT8=
EXTT9=
EXTT10=
EXTT11=
EXTT12=
EXTT13=
EXTT14=
EXTT15=
EXTT16=
EXTT17=
PLAYORDER=
